<svg xmlns="http://www.w3.org/2000/svg" xmlns:xlink="http://www.w3.org/1999/xlink" viewBox="0 0 128 128"><defs><style>.cls-1{fill:none;}.cls-2{fill:#f59e0b;}.cls-3{fill:url(#Unnamed_Pattern);}.cls-4{fill:#fff;}</style><pattern id="Unnamed_Pattern" data-name="Unnamed Pattern" width="328" height="328" patternTransform="translate(325.04 44.2) scale(0.39)" patternUnits="userSpaceOnUse" viewBox="0 0 328 328"><rect class="cls-1" width="328" height="328"/><rect class="cls-2" width="328" height="328"/></pattern></defs><title>cashlogger_logo</title><g id="Layer_2" data-name="Layer 2"><g id="Layer_1-2" data-name="Layer 1"><path class="cls-3" d="M64,0h0A64,64,0,0,0,0,64H0a64,64,0,0,0,64,64h0a64,64,0,0,0,64-64h0A64,64,0,0,0,64,0ZM94.77,49.51a3.18,3.18,0,0,1-2.45,2.72c-11.83,2.73-21,8.53-28.1,17.71a69,69,0,0,1,20.09,35.3,3.18,3.18,0,0,1-3.85,3.82C73,107.25,63.82,101,55.4,91.84s-14.28-19-16.27-27.39a3.19,3.19,0,0,1,3.1-3.92h.15c.35,0,.7,0,1,0a14.32,14.32,0,0,0,10.15-3.71L33.46,51A3.19,3.19,0,0,1,33,45.06a65.51,65.51,0,0,1,28.35-6.21l1.74,0a68.78,68.78,0,0,1,30,7.41A3.17,3.17,0,0,1,94.77,49.51Zm-.19-17.85c-1.33.4-2.68.83-4,1.25-2.94.94-6,1.91-9.08,2.65a82.5,82.5,0,0,1-19,2.25,83.2,83.2,0,0,1-25.15-4,7.51,7.51,0,0,1-5.52-7.12A5.27,5.27,0,0,1,36.4,21a112.47,112.47,0,0,1,21.65-2.15,108.84,108.84,0,0,1,20.73,2c3.66.72,7.29,1.66,10.81,2.57,1.57.4,3.19.82,4.78,1.21a3.19,3.19,0,0,1,2.42,2.94l0,.86A3.2,3.2,0,0,1,94.58,31.66Z"/><path d="M93,46.28a68.78,68.78,0,0,0-30-7.41l-1.74,0A65.51,65.51,0,0,0,33,45.06,3.19,3.19,0,0,0,33.46,51l20.1,5.84a14.32,14.32,0,0,1-10.15,3.71c-.33,0-.68,0-1,0h-.15a3.19,3.19,0,0,0-3.1,3.92c2,8.35,7.92,18.33,16.27,27.39S73,107.25,80.46,109.06a3.18,3.18,0,0,0,3.85-3.82,69,69,0,0,0-20.09-35.3c7-9.18,16.27-15,28.1-17.71A3.18,3.18,0,0,0,93,46.28ZM60,70.37A65.69,65.69,0,0,1,81.21,106c-14.5-3.5-35.07-25.83-39-42.25,7.21.34,12.77-2.39,16.92-8.57l-24.8-7.2A62.59,62.59,0,0,1,63,42.06,65.83,65.83,0,0,1,91.6,49.13C78.14,52.22,67.69,59.18,60,70.37Z"/><path class="cls-4" d="M34.35,47.94l24.8,7.2c-4.15,6.18-9.71,8.91-16.92,8.57,3.91,16.42,24.48,38.75,39,42.25A65.69,65.69,0,0,0,60,70.37C67.69,59.18,78.14,52.22,91.6,49.13A65.83,65.83,0,0,0,63,42.06,62.59,62.59,0,0,0,34.35,47.94Z"/><path d="M94.37,24.64c-1.59-.39-3.21-.81-4.78-1.21-3.52-.91-7.15-1.85-10.81-2.57a108.84,108.84,0,0,0-20.73-2A112.47,112.47,0,0,0,36.4,21a5.27,5.27,0,0,0-4.54,5.72,7.51,7.51,0,0,0,5.52,7.12,83.2,83.2,0,0,0,25.15,4,82.5,82.5,0,0,0,19-2.25c3.1-.74,6.14-1.71,9.08-2.65,1.31-.42,2.66-.85,4-1.25a3.2,3.2,0,0,0,2.26-3.22l0-.86A3.19,3.19,0,0,0,94.37,24.64Zm-13.6,7.82A78.28,78.28,0,0,1,38.34,30.8a4.28,4.28,0,0,1-3.29-4.17,2.11,2.11,0,0,1,2-2.5A105.93,105.93,0,0,1,78.17,24c5.19,1,10.3,2.49,15.44,3.75l0,.86C89.36,29.9,85.12,31.42,80.77,32.46Z"/><path class="cls-4" d="M78.17,24A105.93,105.93,0,0,0,37,24.13a2.11,2.11,0,0,0-2,2.5,4.28,4.28,0,0,0,3.29,4.17,78.28,78.28,0,0,0,42.43,1.66c4.35-1,8.59-2.56,12.88-3.86l0-.86C88.47,26.48,83.36,25,78.17,24Z"/></g></g></svg>